<svg xmlns="http://www.w3.org/2000/svg" width="10" height="14" viewBox="0 0 10 14">
  <path fill="#FFFFFF" fill-rule="evenodd" d="M489.018781,47.6094547 L486.143372,47.6094547 C486.032121,47.6094547 485.935847,47.6501037 485.854548,47.7314029 C485.773248,47.8127021 485.732599,47.9089759 485.732599,48.0202274 L485.732599,60.3434089 C485.732599,60.4546604 485.773248,60.5509343 485.854548,60.6322335 C485.935847,60.7135327 486.032121,60.7541816 486.143372,60.7541816 L489.018781,60.7541816 C489.13859,60.7541816 489.237004,60.7135327 489.314024,60.6322335 C489.391044,60.5509343 489.429554,60.4546604 489.429554,60.3434089 L489.429554,48.0202274 C489.429554,47.9089759 489.391044,47.8127021 489.314024,47.7314029 C489.237004,47.6501037 489.13859,47.6094547 489.018781,47.6094547 Z M494.321827,47.6094547 L491.459254,47.6094547 C491.348003,47.6094547 491.251729,47.6501037 491.17043,47.7314029 C491.089131,47.8127021 491.048482,47.9089759 491.048482,48.0202274 L491.048482,60.3434089 C491.048482,60.4546604 491.089131,60.5509343 491.17043,60.6322335 C491.251729,60.7135327 491.348003,60.7541816 491.459254,60.7541816 L494.321827,60.7541816 C494.433078,60.7541816 494.529352,60.7135327 494.610651,60.6322335 C494.69195,60.5509343 494.732599,60.4546604 494.732599,60.3434089 L494.732599,48.0202274 C494.732599,47.9089759 494.69195,47.8127021 494.610651,47.7314029 C494.529352,47.6501037 494.433078,47.6094547 494.321827,47.6094547 Z" transform="translate(-485 -47)"/>
</svg>
