<svg xmlns="http://www.w3.org/2000/svg" width="9" height="14" viewBox="0 0 9 14">
  <path fill="#46A7DA" fill-rule="evenodd" d="M3.28618173,0 L0.410772716,0 C0.299521216,0 0.203247323,0.0406489768 0.12194815,0.12194815 C0.0406489768,0.203247323 5.68434189e-14,0.299521216 5.68434189e-14,0.410772716 L5.68434189e-14,12.7339542 C5.68434189e-14,12.8452057 0.0406489768,12.9414796 0.12194815,13.0227788 C0.203247323,13.1040779 0.299521216,13.1447269 0.410772716,13.1447269 L3.28618173,13.1447269 C3.40599103,13.1447269 3.50440435,13.1040779 3.58142462,13.0227788 C3.65844489,12.9414796 3.69695444,12.8452057 3.69695444,12.7339542 L3.69695444,0.410772716 C3.69695444,0.299521216 3.65844489,0.203247323 3.58142462,0.12194815 C3.50440435,0.0406489768 3.40599103,0 3.28618173,0 Z M8.58922728,0 L5.72665492,0 C5.61540342,0 5.51912953,0.0406489768 5.43783035,0.12194815 C5.35653118,0.203247323 5.3158822,0.299521216 5.3158822,0.410772716 L5.3158822,12.7339542 C5.3158822,12.8452057 5.35653118,12.9414796 5.43783035,13.0227788 C5.51912953,13.1040779 5.61540342,13.1447269 5.72665492,13.1447269 L8.58922728,13.1447269 C8.70047878,13.1447269 8.79675268,13.1040779 8.87805185,13.0227788 C8.95935102,12.9414796 9,12.8452057 9,12.7339542 L9,0.410772716 C9,0.299521216 8.95935102,0.203247323 8.87805185,0.12194815 C8.79675268,0.0406489768 8.70047878,0 8.58922728,0 Z"/>
</svg>
