<svg xmlns="http://www.w3.org/2000/svg" width="11" height="13" viewBox="0 0 11 13">
  <path fill="#46A7DA" fill-rule="evenodd" d="M0.825816414,8 C0.75805678,8 0.690298162,8.00846983 0.622538527,8.02540974 C0.554778893,8.04234964 0.491255189,8.06775913 0.431965509,8.10163894 C0.29644624,8.17786853 0.192690857,8.27950646 0.120696245,8.40655577 C0.0487016337,8.53360509 0.0127048679,8.66912232 0.0127048679,8.81311155 L5.68434189e-14,20.1712635 C5.68434189e-14,20.3152527 0.0359967658,20.4507699 0.107991377,20.5778192 C0.179985989,20.7048685 0.283741372,20.8065065 0.419260641,20.8827361 C0.478550321,20.9166159 0.542074025,20.9420254 0.609833659,20.9589653 C0.677593294,20.9759052 0.745351912,20.984375 0.813111546,20.984375 C0.88087118,20.984375 0.952864712,20.9737877 1.0290943,20.9526128 C1.10532389,20.9314379 1.17308251,20.8996761 1.23237219,20.8573263 L10.5958598,15.1782504 C10.7144392,15.1104907 10.8076073,15.0152052 10.8753669,14.8923908 C10.9431266,14.7695765 10.9770059,14.6361767 10.9770059,14.4921875 C10.9770059,14.3481983 10.9431266,14.2147985 10.8753669,14.0919842 C10.8076073,13.9691698 10.7144392,13.8738843 10.5958598,13.8061246 L1.24507705,8.12704868 C1.18578737,8.08469891 1.11802876,8.05293706 1.04179917,8.03176217 C0.96556958,8.01058728 0.893576048,8 0.825816414,8 Z" transform="translate(0 -8)"/>
</svg>
