<svg xmlns="http://www.w3.org/2000/svg" width="12" height="14" viewBox="0 0 12 14">
  <path fill="#FDFDFD" fill-rule="evenodd" d="M486.337313,47.5078125 C486.269554,47.5078125 486.201795,47.5162823 486.134036,47.5332222 C486.066276,47.5501621 486.002752,47.5755716 485.943463,47.6094514 C485.807943,47.685681 485.704188,47.787319 485.632193,47.9143683 C485.560199,48.0414176 485.524202,48.1769348 485.524202,48.320924 L485.511497,59.679076 C485.511497,59.8230652 485.547494,59.9585824 485.619488,60.0856317 C485.691483,60.212681 485.795238,60.314319 485.930758,60.3905486 C485.990047,60.4244284 486.053571,60.4498379 486.121331,60.4667778 C486.18909,60.4837177 486.256849,60.4921875 486.324609,60.4921875 C486.392368,60.4921875 486.464362,60.4816002 486.540591,60.4604253 C486.616821,60.4392504 486.68458,60.4074886 486.743869,60.3651388 L496.107357,54.6860629 C496.225936,54.6183032 496.319104,54.5230177 496.386864,54.4002033 C496.454624,54.277389 496.488503,54.1439892 496.488503,54 C496.488503,53.8560108 496.454624,53.722611 496.386864,53.5997967 C496.319104,53.4769823 496.225936,53.3816968 496.107357,53.3139371 L486.756574,47.6348612 C486.697284,47.5925114 486.629526,47.5607496 486.553296,47.5395747 C486.477067,47.5183998 486.405073,47.5078125 486.337313,47.5078125 Z" transform="translate(-485 -47)"/>
</svg>
